<mxfile host="app.diagrams.net" modified="2024-07-19T06:27:47.903Z" agent="Mozilla/5.0 (X11; Linux x86_64; rv:109.0) Gecko/20100101 Firefox/115.0" etag="vHqd1vCqL63teek4cWPG" version="24.7.1" type="github">
  <diagram name="Page-1" id="2THthLepEFFgmK31MBts">
    <mxGraphModel dx="2537" dy="2056" grid="1" gridSize="10" guides="1" tooltips="1" connect="1" arrows="1" fold="1" page="1" pageScale="1" pageWidth="850" pageHeight="1100" math="0" shadow="0">
      <root>
        <mxCell id="0" />
        <mxCell id="1" parent="0" />
        <mxCell id="pPlREHLhx56nWzBl8VDQ-3" value="" style="edgeStyle=orthogonalEdgeStyle;rounded=1;orthogonalLoop=1;jettySize=auto;html=1;fontFamily=Courier New;strokeColor=default;align=center;verticalAlign=middle;fontSize=12;fontColor=default;fillColor=default;" parent="1" source="pPlREHLhx56nWzBl8VDQ-1" target="pPlREHLhx56nWzBl8VDQ-2" edge="1">
          <mxGeometry relative="1" as="geometry" />
        </mxCell>
        <mxCell id="pPlREHLhx56nWzBl8VDQ-1" value="Runner::run(): None" style="rounded=1;whiteSpace=wrap;html=1;fontFamily=Courier New;fontStyle=1;strokeColor=default;align=center;verticalAlign=middle;fontSize=12;fontColor=default;fillColor=default;" parent="1" vertex="1">
          <mxGeometry x="140" y="90" width="120" height="60" as="geometry" />
        </mxCell>
        <mxCell id="mLIb4eEJLBHRUBHXUa-s-9" value="" style="edgeStyle=none;curved=1;rounded=0;orthogonalLoop=1;jettySize=auto;html=1;fontSize=12;startSize=8;endSize=8;fontFamily=Courier New;" edge="1" parent="1" source="pPlREHLhx56nWzBl8VDQ-2" target="mLIb4eEJLBHRUBHXUa-s-8">
          <mxGeometry relative="1" as="geometry" />
        </mxCell>
        <mxCell id="mLIb4eEJLBHRUBHXUa-s-47" value="" style="edgeStyle=none;curved=1;rounded=0;orthogonalLoop=1;jettySize=auto;html=1;fontSize=12;startSize=8;endSize=8;" edge="1" parent="1" source="pPlREHLhx56nWzBl8VDQ-2" target="mLIb4eEJLBHRUBHXUa-s-46">
          <mxGeometry relative="1" as="geometry" />
        </mxCell>
        <mxCell id="pPlREHLhx56nWzBl8VDQ-2" value="_env.is_todo" style="whiteSpace=wrap;html=1;rounded=0;shape=rhombus;perimeter=rhombusPerimeter;fontFamily=Courier New;strokeColor=default;align=center;verticalAlign=middle;fontSize=12;fontColor=default;fillColor=default;" parent="1" vertex="1">
          <mxGeometry x="140" y="190" width="120" height="60" as="geometry" />
        </mxCell>
        <mxCell id="pPlREHLhx56nWzBl8VDQ-9" value="" style="edgeStyle=orthogonalEdgeStyle;rounded=1;orthogonalLoop=1;jettySize=auto;html=1;fontFamily=Courier New;strokeColor=default;align=center;verticalAlign=middle;fontSize=12;fontColor=default;fillColor=default;" parent="1" source="pPlREHLhx56nWzBl8VDQ-6" target="pPlREHLhx56nWzBl8VDQ-8" edge="1">
          <mxGeometry relative="1" as="geometry" />
        </mxCell>
        <mxCell id="pPlREHLhx56nWzBl8VDQ-6" value="(CollectJob) &lt;font style=&quot;font-size: 12px;&quot;&gt;collect_job.run&lt;/font&gt;" style="whiteSpace=wrap;html=1;rounded=1;fontFamily=Courier New;strokeColor=default;align=center;verticalAlign=middle;fontSize=12;fontColor=default;fillColor=default;direction=west;" parent="1" vertex="1">
          <mxGeometry x="140" y="370" width="120" height="60" as="geometry" />
        </mxCell>
        <mxCell id="pPlREHLhx56nWzBl8VDQ-11" value="" style="edgeStyle=orthogonalEdgeStyle;rounded=1;orthogonalLoop=1;jettySize=auto;html=1;fontFamily=Courier New;strokeColor=default;align=center;verticalAlign=middle;fontSize=12;fontColor=default;fillColor=default;" parent="1" source="pPlREHLhx56nWzBl8VDQ-8" target="pPlREHLhx56nWzBl8VDQ-10" edge="1">
          <mxGeometry relative="1" as="geometry" />
        </mxCell>
        <mxCell id="pPlREHLhx56nWzBl8VDQ-8" value="(TrainJob)&lt;br&gt;&lt;div&gt;train_job.run&lt;/div&gt;" style="whiteSpace=wrap;html=1;rounded=1;fontFamily=Courier New;strokeColor=default;align=center;verticalAlign=middle;fontSize=12;fontColor=default;fillColor=default;" parent="1" vertex="1">
          <mxGeometry x="140" y="464" width="120" height="60" as="geometry" />
        </mxCell>
        <mxCell id="pPlREHLhx56nWzBl8VDQ-10" value="&lt;div&gt;(PredJob)&lt;br&gt;&lt;/div&gt;&lt;div&gt;pred_job.run&lt;/div&gt;" style="whiteSpace=wrap;html=1;rounded=1;fontFamily=Courier New;strokeColor=default;align=center;verticalAlign=middle;fontSize=12;fontColor=default;fillColor=default;" parent="1" vertex="1">
          <mxGeometry x="140" y="560" width="120" height="60" as="geometry" />
        </mxCell>
        <mxCell id="pPlREHLhx56nWzBl8VDQ-14" value="&lt;font style=&quot;font-size: 12px;&quot;&gt;&lt;span style=&quot;background-color: rgb(255, 255, 255); font-size: 12px;&quot;&gt;check_file(fname: str) : bool&lt;br style=&quot;font-size: 12px;&quot;&gt;&lt;/span&gt;&lt;/font&gt;" style="rounded=1;html=1;fontFamily=Courier New;whiteSpace=wrap;fontSize=12;" parent="1" vertex="1">
          <mxGeometry x="-310" y="-190" width="120" height="60" as="geometry" />
        </mxCell>
        <mxCell id="mLIb4eEJLBHRUBHXUa-s-13" value="" style="edgeStyle=none;curved=1;rounded=0;orthogonalLoop=1;jettySize=auto;html=1;fontSize=12;startSize=8;endSize=8;fontFamily=Courier New;" edge="1" parent="1" source="mLIb4eEJLBHRUBHXUa-s-8" target="pPlREHLhx56nWzBl8VDQ-6">
          <mxGeometry relative="1" as="geometry" />
        </mxCell>
        <mxCell id="mLIb4eEJLBHRUBHXUa-s-57" value="" style="edgeStyle=none;curved=1;rounded=0;orthogonalLoop=1;jettySize=auto;html=1;fontSize=12;dashed=1;" edge="1" parent="1" source="mLIb4eEJLBHRUBHXUa-s-8" target="mLIb4eEJLBHRUBHXUa-s-56">
          <mxGeometry relative="1" as="geometry" />
        </mxCell>
        <mxCell id="mLIb4eEJLBHRUBHXUa-s-8" value="dist" style="whiteSpace=wrap;html=1;fontSize=12;fontFamily=Courier New;rounded=1;" vertex="1" parent="1">
          <mxGeometry x="140" y="280" width="120" height="60" as="geometry" />
        </mxCell>
        <mxCell id="mLIb4eEJLBHRUBHXUa-s-15" value="&lt;div style=&quot;font-size: 12px;&quot;&gt;Runner&lt;/div&gt;" style="swimlane;fontStyle=1;align=center;verticalAlign=top;childLayout=stackLayout;horizontal=1;startSize=26;horizontalStack=0;resizeParent=1;resizeParentMax=0;resizeLast=0;collapsible=1;marginBottom=0;whiteSpace=wrap;html=1;fontSize=12;fontFamily=Courier New;" vertex="1" parent="1">
          <mxGeometry x="-310" y="90" width="200" height="190" as="geometry" />
        </mxCell>
        <mxCell id="mLIb4eEJLBHRUBHXUa-s-16" value="+ _env: &lt;b&gt;Env&lt;/b&gt;" style="text;strokeColor=none;fillColor=none;align=left;verticalAlign=top;spacingLeft=4;spacingRight=4;overflow=hidden;rotatable=0;points=[[0,0.5],[1,0.5]];portConstraint=eastwest;whiteSpace=wrap;html=1;fontSize=12;fontFamily=Courier New;" vertex="1" parent="mLIb4eEJLBHRUBHXUa-s-15">
          <mxGeometry y="26" width="200" height="26" as="geometry" />
        </mxCell>
        <mxCell id="mLIb4eEJLBHRUBHXUa-s-19" value="+ _jid: str = jid" style="text;strokeColor=none;fillColor=none;align=left;verticalAlign=top;spacingLeft=4;spacingRight=4;overflow=hidden;rotatable=0;points=[[0,0.5],[1,0.5]];portConstraint=eastwest;whiteSpace=wrap;html=1;fontSize=12;fontFamily=Courier New;" vertex="1" parent="mLIb4eEJLBHRUBHXUa-s-15">
          <mxGeometry y="52" width="200" height="26" as="geometry" />
        </mxCell>
        <mxCell id="mLIb4eEJLBHRUBHXUa-s-20" value="+ _job_param: &lt;b&gt;JobParam&lt;/b&gt;" style="text;strokeColor=none;fillColor=none;align=left;verticalAlign=top;spacingLeft=4;spacingRight=4;overflow=hidden;rotatable=0;points=[[0,0.5],[1,0.5]];portConstraint=eastwest;whiteSpace=wrap;html=1;fontSize=12;fontFamily=Courier New;" vertex="1" parent="mLIb4eEJLBHRUBHXUa-s-15">
          <mxGeometry y="78" width="200" height="26" as="geometry" />
        </mxCell>
        <mxCell id="mLIb4eEJLBHRUBHXUa-s-21" value="+ _cfg: str = jid + &#39;.cfg&#39;" style="text;strokeColor=none;fillColor=none;align=left;verticalAlign=top;spacingLeft=4;spacingRight=4;overflow=hidden;rotatable=0;points=[[0,0.5],[1,0.5]];portConstraint=eastwest;whiteSpace=wrap;html=1;fontSize=12;fontFamily=Courier New;" vertex="1" parent="mLIb4eEJLBHRUBHXUa-s-15">
          <mxGeometry y="104" width="200" height="26" as="geometry" />
        </mxCell>
        <mxCell id="mLIb4eEJLBHRUBHXUa-s-17" value="" style="line;strokeWidth=1;fillColor=none;align=left;verticalAlign=middle;spacingTop=-1;spacingLeft=3;spacingRight=3;rotatable=0;labelPosition=right;points=[];portConstraint=eastwest;strokeColor=inherit;fontSize=12;fontFamily=Courier New;" vertex="1" parent="mLIb4eEJLBHRUBHXUa-s-15">
          <mxGeometry y="130" width="200" height="8" as="geometry" />
        </mxCell>
        <mxCell id="mLIb4eEJLBHRUBHXUa-s-18" value="+ run(self): None" style="text;strokeColor=none;fillColor=none;align=left;verticalAlign=top;spacingLeft=4;spacingRight=4;overflow=hidden;rotatable=0;points=[[0,0.5],[1,0.5]];portConstraint=eastwest;whiteSpace=wrap;html=1;fontSize=12;fontFamily=Courier New;" vertex="1" parent="mLIb4eEJLBHRUBHXUa-s-15">
          <mxGeometry y="138" width="200" height="26" as="geometry" />
        </mxCell>
        <mxCell id="mLIb4eEJLBHRUBHXUa-s-30" value="+ rerun(self): None" style="text;strokeColor=none;fillColor=none;align=left;verticalAlign=top;spacingLeft=4;spacingRight=4;overflow=hidden;rotatable=0;points=[[0,0.5],[1,0.5]];portConstraint=eastwest;whiteSpace=wrap;html=1;fontSize=12;fontFamily=Courier New;" vertex="1" parent="mLIb4eEJLBHRUBHXUa-s-15">
          <mxGeometry y="164" width="200" height="26" as="geometry" />
        </mxCell>
        <mxCell id="mLIb4eEJLBHRUBHXUa-s-22" value="Env" style="swimlane;fontStyle=1;align=center;verticalAlign=top;childLayout=stackLayout;horizontal=1;startSize=26;horizontalStack=0;resizeParent=1;resizeParentMax=0;resizeLast=0;collapsible=1;marginBottom=0;whiteSpace=wrap;html=1;fontSize=12;fontFamily=Courier New;" vertex="1" parent="1">
          <mxGeometry x="-540" y="90" width="170" height="112" as="geometry" />
        </mxCell>
        <mxCell id="mLIb4eEJLBHRUBHXUa-s-23" value="&amp;nbsp;" style="text;strokeColor=none;fillColor=none;align=left;verticalAlign=top;spacingLeft=4;spacingRight=4;overflow=hidden;rotatable=0;points=[[0,0.5],[1,0.5]];portConstraint=eastwest;whiteSpace=wrap;html=1;fontSize=12;fontFamily=Courier New;" vertex="1" parent="mLIb4eEJLBHRUBHXUa-s-22">
          <mxGeometry y="26" width="170" height="26" as="geometry" />
        </mxCell>
        <mxCell id="mLIb4eEJLBHRUBHXUa-s-27" value="" style="line;strokeWidth=1;fillColor=none;align=left;verticalAlign=middle;spacingTop=-1;spacingLeft=3;spacingRight=3;rotatable=0;labelPosition=right;points=[];portConstraint=eastwest;strokeColor=inherit;fontSize=12;fontFamily=Courier New;" vertex="1" parent="mLIb4eEJLBHRUBHXUa-s-22">
          <mxGeometry y="52" width="170" height="8" as="geometry" />
        </mxCell>
        <mxCell id="mLIb4eEJLBHRUBHXUa-s-28" value="+ lock(self): None" style="text;strokeColor=none;fillColor=none;align=left;verticalAlign=top;spacingLeft=4;spacingRight=4;overflow=hidden;rotatable=0;points=[[0,0.5],[1,0.5]];portConstraint=eastwest;whiteSpace=wrap;html=1;fontSize=12;fontFamily=Courier New;" vertex="1" parent="mLIb4eEJLBHRUBHXUa-s-22">
          <mxGeometry y="60" width="170" height="26" as="geometry" />
        </mxCell>
        <mxCell id="mLIb4eEJLBHRUBHXUa-s-29" value="+ unlock(self): None" style="text;strokeColor=none;fillColor=none;align=left;verticalAlign=top;spacingLeft=4;spacingRight=4;overflow=hidden;rotatable=0;points=[[0,0.5],[1,0.5]];portConstraint=eastwest;whiteSpace=wrap;html=1;fontSize=12;fontFamily=Courier New;" vertex="1" parent="mLIb4eEJLBHRUBHXUa-s-22">
          <mxGeometry y="86" width="170" height="26" as="geometry" />
        </mxCell>
        <mxCell id="mLIb4eEJLBHRUBHXUa-s-31" value="CollectJob(Job)" style="swimlane;fontStyle=1;align=center;verticalAlign=top;childLayout=stackLayout;horizontal=1;startSize=26;horizontalStack=0;resizeParent=1;resizeParentMax=0;resizeLast=0;collapsible=1;marginBottom=0;whiteSpace=wrap;html=1;fontSize=12;fontFamily=Courier New;" vertex="1" parent="1">
          <mxGeometry x="-310" y="781" width="170" height="112" as="geometry" />
        </mxCell>
        <mxCell id="mLIb4eEJLBHRUBHXUa-s-45" value="+ _proc = None" style="text;strokeColor=none;fillColor=none;align=left;verticalAlign=top;spacingLeft=4;spacingRight=4;overflow=hidden;rotatable=0;points=[[0,0.5],[1,0.5]];portConstraint=eastwest;whiteSpace=wrap;html=1;fontSize=12;fontFamily=Courier New;" vertex="1" parent="mLIb4eEJLBHRUBHXUa-s-31">
          <mxGeometry y="26" width="170" height="26" as="geometry" />
        </mxCell>
        <mxCell id="mLIb4eEJLBHRUBHXUa-s-32" value="+ _running_dates = []" style="text;strokeColor=none;fillColor=none;align=left;verticalAlign=top;spacingLeft=4;spacingRight=4;overflow=hidden;rotatable=0;points=[[0,0.5],[1,0.5]];portConstraint=eastwest;whiteSpace=wrap;html=1;fontSize=12;fontFamily=Courier New;" vertex="1" parent="mLIb4eEJLBHRUBHXUa-s-31">
          <mxGeometry y="52" width="170" height="26" as="geometry" />
        </mxCell>
        <mxCell id="mLIb4eEJLBHRUBHXUa-s-33" value="" style="line;strokeWidth=1;fillColor=none;align=left;verticalAlign=middle;spacingTop=-1;spacingLeft=3;spacingRight=3;rotatable=0;labelPosition=right;points=[];portConstraint=eastwest;strokeColor=inherit;fontSize=12;fontFamily=Courier New;" vertex="1" parent="mLIb4eEJLBHRUBHXUa-s-31">
          <mxGeometry y="78" width="170" height="8" as="geometry" />
        </mxCell>
        <mxCell id="mLIb4eEJLBHRUBHXUa-s-34" value="+ run(self): None" style="text;strokeColor=none;fillColor=none;align=left;verticalAlign=top;spacingLeft=4;spacingRight=4;overflow=hidden;rotatable=0;points=[[0,0.5],[1,0.5]];portConstraint=eastwest;whiteSpace=wrap;html=1;fontSize=12;fontFamily=Courier New;" vertex="1" parent="mLIb4eEJLBHRUBHXUa-s-31">
          <mxGeometry y="86" width="170" height="26" as="geometry" />
        </mxCell>
        <mxCell id="mLIb4eEJLBHRUBHXUa-s-36" value="Job" style="swimlane;fontStyle=1;align=center;verticalAlign=top;childLayout=stackLayout;horizontal=1;startSize=26;horizontalStack=0;resizeParent=1;resizeParentMax=0;resizeLast=0;collapsible=1;marginBottom=0;whiteSpace=wrap;html=1;fontSize=12;fontFamily=Courier New;" vertex="1" parent="1">
          <mxGeometry x="-540" y="781" width="170" height="190" as="geometry" />
        </mxCell>
        <mxCell id="mLIb4eEJLBHRUBHXUa-s-37" value="+ _env: &lt;b&gt;Env&lt;/b&gt;" style="text;strokeColor=none;fillColor=none;align=left;verticalAlign=top;spacingLeft=4;spacingRight=4;overflow=hidden;rotatable=0;points=[[0,0.5],[1,0.5]];portConstraint=eastwest;whiteSpace=wrap;html=1;fontSize=12;fontFamily=Courier New;" vertex="1" parent="mLIb4eEJLBHRUBHXUa-s-36">
          <mxGeometry y="26" width="170" height="26" as="geometry" />
        </mxCell>
        <mxCell id="mLIb4eEJLBHRUBHXUa-s-41" value="+ _jib: str" style="text;strokeColor=none;fillColor=none;align=left;verticalAlign=top;spacingLeft=4;spacingRight=4;overflow=hidden;rotatable=0;points=[[0,0.5],[1,0.5]];portConstraint=eastwest;whiteSpace=wrap;html=1;fontSize=12;fontFamily=Courier New;" vertex="1" parent="mLIb4eEJLBHRUBHXUa-s-36">
          <mxGeometry y="52" width="170" height="26" as="geometry" />
        </mxCell>
        <mxCell id="mLIb4eEJLBHRUBHXUa-s-43" value="+ _dry: bool = False" style="text;strokeColor=none;fillColor=none;align=left;verticalAlign=top;spacingLeft=4;spacingRight=4;overflow=hidden;rotatable=0;points=[[0,0.5],[1,0.5]];portConstraint=eastwest;whiteSpace=wrap;html=1;fontSize=12;fontFamily=Courier New;" vertex="1" parent="mLIb4eEJLBHRUBHXUa-s-36">
          <mxGeometry y="78" width="170" height="26" as="geometry" />
        </mxCell>
        <mxCell id="mLIb4eEJLBHRUBHXUa-s-42" value="+ _cfg:&amp;nbsp;str" style="text;strokeColor=none;fillColor=none;align=left;verticalAlign=top;spacingLeft=4;spacingRight=4;overflow=hidden;rotatable=0;points=[[0,0.5],[1,0.5]];portConstraint=eastwest;whiteSpace=wrap;html=1;fontSize=12;fontFamily=Courier New;" vertex="1" parent="mLIb4eEJLBHRUBHXUa-s-36">
          <mxGeometry y="104" width="170" height="26" as="geometry" />
        </mxCell>
        <mxCell id="mLIb4eEJLBHRUBHXUa-s-44" value="+ _job_param: &lt;b&gt;JobParam&lt;/b&gt;" style="text;strokeColor=none;fillColor=none;align=left;verticalAlign=top;spacingLeft=4;spacingRight=4;overflow=hidden;rotatable=0;points=[[0,0.5],[1,0.5]];portConstraint=eastwest;whiteSpace=wrap;html=1;fontSize=12;fontFamily=Courier New;" vertex="1" parent="mLIb4eEJLBHRUBHXUa-s-36">
          <mxGeometry y="130" width="170" height="26" as="geometry" />
        </mxCell>
        <mxCell id="mLIb4eEJLBHRUBHXUa-s-38" value="" style="line;strokeWidth=1;fillColor=none;align=left;verticalAlign=middle;spacingTop=-1;spacingLeft=3;spacingRight=3;rotatable=0;labelPosition=right;points=[];portConstraint=eastwest;strokeColor=inherit;fontSize=12;fontFamily=Courier New;" vertex="1" parent="mLIb4eEJLBHRUBHXUa-s-36">
          <mxGeometry y="156" width="170" height="8" as="geometry" />
        </mxCell>
        <mxCell id="mLIb4eEJLBHRUBHXUa-s-39" value="&amp;nbsp;" style="text;strokeColor=none;fillColor=none;align=left;verticalAlign=top;spacingLeft=4;spacingRight=4;overflow=hidden;rotatable=0;points=[[0,0.5],[1,0.5]];portConstraint=eastwest;whiteSpace=wrap;html=1;fontSize=12;fontFamily=Courier New;" vertex="1" parent="mLIb4eEJLBHRUBHXUa-s-36">
          <mxGeometry y="164" width="170" height="26" as="geometry" />
        </mxCell>
        <mxCell id="mLIb4eEJLBHRUBHXUa-s-46" value="" style="points=[[0.145,0.145,0],[0.5,0,0],[0.855,0.145,0],[1,0.5,0],[0.855,0.855,0],[0.5,1,0],[0.145,0.855,0],[0,0.5,0]];shape=mxgraph.bpmn.event;html=1;verticalLabelPosition=bottom;labelBackgroundColor=#ffffff;verticalAlign=top;align=center;perimeter=ellipsePerimeter;outlineConnect=0;aspect=fixed;outline=throwing;symbol=general;" vertex="1" parent="1">
          <mxGeometry x="330" y="195" width="50" height="50" as="geometry" />
        </mxCell>
        <mxCell id="mLIb4eEJLBHRUBHXUa-s-48" value="CollectJob::run" style="rounded=1;whiteSpace=wrap;html=1;fontFamily=Courier New;fontStyle=1;strokeColor=default;align=center;verticalAlign=middle;fontSize=12;fontColor=default;fillColor=default;" vertex="1" parent="1">
          <mxGeometry x="140" y="846" width="120" height="60" as="geometry" />
        </mxCell>
        <mxCell id="mLIb4eEJLBHRUBHXUa-s-49" value="JobParam" style="swimlane;fontStyle=1;align=center;verticalAlign=top;childLayout=stackLayout;horizontal=1;startSize=26;horizontalStack=0;resizeParent=1;resizeParentMax=0;resizeLast=0;collapsible=1;marginBottom=0;whiteSpace=wrap;html=1;fontSize=12;fontFamily=Courier New;" vertex="1" parent="1">
          <mxGeometry x="-540" y="240" width="170" height="138" as="geometry" />
        </mxCell>
        <mxCell id="mLIb4eEJLBHRUBHXUa-s-50" value="+ _begin = 0" style="text;strokeColor=none;fillColor=none;align=left;verticalAlign=top;spacingLeft=4;spacingRight=4;overflow=hidden;rotatable=0;points=[[0,0.5],[1,0.5]];portConstraint=eastwest;whiteSpace=wrap;html=1;fontSize=12;fontFamily=Courier New;" vertex="1" parent="mLIb4eEJLBHRUBHXUa-s-49">
          <mxGeometry y="26" width="170" height="26" as="geometry" />
        </mxCell>
        <mxCell id="mLIb4eEJLBHRUBHXUa-s-54" value="+ _end = 0" style="text;strokeColor=none;fillColor=none;align=left;verticalAlign=top;spacingLeft=4;spacingRight=4;overflow=hidden;rotatable=0;points=[[0,0.5],[1,0.5]];portConstraint=eastwest;whiteSpace=wrap;html=1;fontSize=12;fontFamily=Courier New;" vertex="1" parent="mLIb4eEJLBHRUBHXUa-s-49">
          <mxGeometry y="52" width="170" height="26" as="geometry" />
        </mxCell>
        <mxCell id="mLIb4eEJLBHRUBHXUa-s-55" value="+ _night = False" style="text;strokeColor=none;fillColor=none;align=left;verticalAlign=top;spacingLeft=4;spacingRight=4;overflow=hidden;rotatable=0;points=[[0,0.5],[1,0.5]];portConstraint=eastwest;whiteSpace=wrap;html=1;fontSize=12;fontFamily=Courier New;" vertex="1" parent="mLIb4eEJLBHRUBHXUa-s-49">
          <mxGeometry y="78" width="170" height="26" as="geometry" />
        </mxCell>
        <mxCell id="mLIb4eEJLBHRUBHXUa-s-51" value="" style="line;strokeWidth=1;fillColor=none;align=left;verticalAlign=middle;spacingTop=-1;spacingLeft=3;spacingRight=3;rotatable=0;labelPosition=right;points=[];portConstraint=eastwest;strokeColor=inherit;fontSize=12;fontFamily=Courier New;" vertex="1" parent="mLIb4eEJLBHRUBHXUa-s-49">
          <mxGeometry y="104" width="170" height="8" as="geometry" />
        </mxCell>
        <mxCell id="mLIb4eEJLBHRUBHXUa-s-52" value="&amp;nbsp;" style="text;strokeColor=none;fillColor=none;align=left;verticalAlign=top;spacingLeft=4;spacingRight=4;overflow=hidden;rotatable=0;points=[[0,0.5],[1,0.5]];portConstraint=eastwest;whiteSpace=wrap;html=1;fontSize=12;fontFamily=Courier New;" vertex="1" parent="mLIb4eEJLBHRUBHXUa-s-49">
          <mxGeometry y="112" width="170" height="26" as="geometry" />
        </mxCell>
        <mxCell id="mLIb4eEJLBHRUBHXUa-s-59" value="" style="edgeStyle=none;curved=1;rounded=0;orthogonalLoop=1;jettySize=auto;html=1;fontSize=12;startSize=8;endSize=8;" edge="1" parent="1" source="mLIb4eEJLBHRUBHXUa-s-56" target="mLIb4eEJLBHRUBHXUa-s-58">
          <mxGeometry relative="1" as="geometry" />
        </mxCell>
        <mxCell id="mLIb4eEJLBHRUBHXUa-s-56" value="dist(_jid): None" style="whiteSpace=wrap;html=1;fontFamily=Courier New;rounded=1;fontStyle=1" vertex="1" parent="1">
          <mxGeometry x="380" y="280" width="120" height="60" as="geometry" />
        </mxCell>
        <mxCell id="mLIb4eEJLBHRUBHXUa-s-61" value="" style="edgeStyle=none;curved=1;rounded=0;orthogonalLoop=1;jettySize=auto;html=1;fontSize=12;startSize=8;endSize=8;" edge="1" parent="1" source="mLIb4eEJLBHRUBHXUa-s-58" target="mLIb4eEJLBHRUBHXUa-s-60">
          <mxGeometry relative="1" as="geometry" />
        </mxCell>
        <mxCell id="mLIb4eEJLBHRUBHXUa-s-58" value="_env.lock" style="whiteSpace=wrap;html=1;fontFamily=Courier New;rounded=1;" vertex="1" parent="1">
          <mxGeometry x="380" y="370" width="120" height="60" as="geometry" />
        </mxCell>
        <mxCell id="mLIb4eEJLBHRUBHXUa-s-63" value="" style="edgeStyle=none;curved=1;rounded=0;orthogonalLoop=1;jettySize=auto;html=1;fontSize=12;startSize=8;endSize=8;" edge="1" parent="1" source="mLIb4eEJLBHRUBHXUa-s-60" target="mLIb4eEJLBHRUBHXUa-s-62">
          <mxGeometry relative="1" as="geometry" />
        </mxCell>
        <mxCell id="mLIb4eEJLBHRUBHXUa-s-60" value="读取 todo_dir/jid.cfg" style="whiteSpace=wrap;html=1;fontFamily=Courier New;rounded=1;" vertex="1" parent="1">
          <mxGeometry x="380" y="464" width="120" height="60" as="geometry" />
        </mxCell>
        <mxCell id="mLIb4eEJLBHRUBHXUa-s-65" value="" style="edgeStyle=none;curved=1;rounded=0;orthogonalLoop=1;jettySize=auto;html=1;fontSize=12;startSize=8;endSize=8;dashed=1;" edge="1" parent="1" source="mLIb4eEJLBHRUBHXUa-s-62" target="mLIb4eEJLBHRUBHXUa-s-64">
          <mxGeometry relative="1" as="geometry" />
        </mxCell>
        <mxCell id="mLIb4eEJLBHRUBHXUa-s-62" value="load" style="whiteSpace=wrap;html=1;fontFamily=Courier New;rounded=1;" vertex="1" parent="1">
          <mxGeometry x="380" y="560" width="120" height="60" as="geometry" />
        </mxCell>
        <mxCell id="mLIb4eEJLBHRUBHXUa-s-67" value="" style="edgeStyle=none;curved=1;rounded=0;orthogonalLoop=1;jettySize=auto;html=1;fontSize=12;startSize=8;endSize=8;" edge="1" parent="1" source="mLIb4eEJLBHRUBHXUa-s-64" target="mLIb4eEJLBHRUBHXUa-s-66">
          <mxGeometry relative="1" as="geometry" />
        </mxCell>
        <mxCell id="mLIb4eEJLBHRUBHXUa-s-64" value="load(ls): None" style="whiteSpace=wrap;html=1;fontFamily=Courier New;rounded=1;fontStyle=1" vertex="1" parent="1">
          <mxGeometry x="620" y="560" width="120" height="60" as="geometry" />
        </mxCell>
        <mxCell id="mLIb4eEJLBHRUBHXUa-s-66" value="fill _job_param._begin _end _night" style="whiteSpace=wrap;html=1;fontFamily=Courier New;rounded=1;fontStyle=0;" vertex="1" parent="1">
          <mxGeometry x="620" y="670" width="120" height="60" as="geometry" />
        </mxCell>
      </root>
    </mxGraphModel>
  </diagram>
</mxfile>
